<?xml version="1.0" encoding="UTF-8" standalone="no"?>
<svg
   xmlns:dc="http://purl.org/dc/elements/1.1/"
   xmlns:cc="http://creativecommons.org/ns#"
   xmlns:rdf="http://www.w3.org/1999/02/22-rdf-syntax-ns#"
   xmlns:svg="http://www.w3.org/2000/svg"
   xmlns="http://www.w3.org/2000/svg"
   xmlns:sodipodi="http://sodipodi.sourceforge.net/DTD/sodipodi-0.dtd"
   xmlns:inkscape="http://www.inkscape.org/namespaces/inkscape"
   version="1.0"
   width="1000.000000pt"
   height="1000.000000pt"
   viewBox="0 0 1000.000000 1000.000000"
   preserveAspectRatio="xMidYMid meet"
   id="svg26"
   sodipodi:docname="mn2-logo.svg"
   inkscape:version="1.0.2 (e86c870879, 2021-01-15, custom)">
  <metadata
     id="metadata32">
    <rdf:RDF>
      <cc:Work
         rdf:about="">
        <dc:format>image/svg+xml</dc:format>
        <dc:type
           rdf:resource="http://purl.org/dc/dcmitype/StillImage" />
      </cc:Work>
    </rdf:RDF>
  </metadata>
  <defs
     id="defs30" />
  <sodipodi:namedview
     pagecolor="#ffffff"
     bordercolor="#666666"
     borderopacity="1"
     objecttolerance="10"
     gridtolerance="10"
     guidetolerance="10"
     inkscape:pageopacity="0"
     inkscape:pageshadow="2"
     inkscape:window-width="1827"
     inkscape:window-height="1033"
     id="namedview28"
     showgrid="false"
     inkscape:zoom="1.2765"
     inkscape:cx="604.41191"
     inkscape:cy="664.37261"
     inkscape:window-x="93"
     inkscape:window-y="0"
     inkscape:window-maximized="0"
     inkscape:current-layer="svg26" />
  <g
     transform="translate(0.000000,1000.000000) scale(0.100000,-0.100000)"
     fill="#000000"
     stroke="none"
     id="g24"
     style="fill:#2c5aa0">
    <path
       d="M0 5000 l0 -5000 5000 0 5000 0 0 5000 0 5000 -5000 0 -5000 0 0 -5000z m7211 1628 c21 -420 38 -775 39 -789 0 -25 -2 -26 -78 -32 -234 -18 -533 -126 -760 -273 -99 -65 -108 -71 -256 -203 -184 -163 -311 -330 -424 -557 -56 -114 -75 -161 -213 -529 -268 -719 -402 -1003 -582 -1240 -62 -81 -156 -168 -213 -198 -156 -81 -344 6 -575 267 -171 192 -347 448 -552 802 -136 235 -160 281 -490 914 -258 497 -408 706 -576 807 l-44 26 6 -199 c4 -109 16 -329 27 -489 34 -495 42 -731 31 -950 -17 -326 -65 -545 -162 -738 -48 -95 -74 -133 -148 -211 -177 -185 -407 -276 -763 -301 l-87 -6 -6 1778 c-3 978 -7 1884 -7 2013 -1 209 1 243 20 311 29 109 60 167 114 222 86 87 204 118 335 91 148 -30 477 -161 673 -267 327 -177 593 -389 867 -690 192 -212 196 -216 279 -322 232 -297 355 -504 518 -872 46 -103 107 -239 136 -302 28 -62 69 -161 90 -220 34 -95 39 -103 48 -81 5 14 33 90 62 170 158 437 414 921 649 1228 425 557 924 1008 1496 1350 148 89 494 266 502 258 3 -3 23 -348 44 -768z m1604 -1918 l0 -1905 -552 -3 -553 -2 0 1738 0 1738 108 34 c59 18 145 46 192 61 47 15 159 50 250 79 91 28 176 55 190 60 14 4 79 25 145 45 66 20 136 43 155 51 19 7 42 12 50 11 13 -2 15 -222 15 -1907z m-1480 -611 l0 -1294 -550 0 -550 0 0 1180 0 1180 540 117 c297 64 545 115 550 114 7 -2 10 -442 10 -1297z"
       id="path22"
       style="fill:#2c5aa0" />
  </g>
  <path
     style="fill:#fffb92;stroke-width:0.783392;fill-opacity:1"
     d="m 975.95766,613.14917 c -22.27844,3.38222 -44.17141,9.04566 -66.27611,13.4219 -26.15624,5.53168 -52.26124,11.30542 -78.4158,16.84274 -2.07479,3.59445 -0.29769,8.66607 -0.9524,12.78664 -0.37915,101.03925 -0.17751,202.07955 -0.23033,303.11928 3.41556,2.35125 9.2275,0.32264 13.53493,1.00065 44.91448,0 89.82896,0 134.74344,0 2.35041,-3.41555 0.31661,-9.2275 0.99204,-13.53493 -0.27653,-107.32909 0.39969,-214.66866 -1.12975,-321.98945 -0.70778,-3.66926 0.93621,-8.5511 -1.35869,-11.57339 -0.29393,-0.0807 -0.6051,-0.0815 -0.90733,-0.0734 z"
     id="path64"
     transform="scale(0.74999998)" />
  <path
     style="fill:#fffb92;stroke-width:0.783392;fill-opacity:1"
     d="m 1172.7788,450.15006 c -20.9433,5.28371 -41.2424,12.9013 -61.9652,19.00161 -27.8115,8.71864 -55.5737,17.62928 -83.3969,26.2959 -1.6374,6.12485 -0.2353,13.24721 -0.7023,19.75617 0,148.29979 0,296.59958 0,444.89938 3.4156,2.35122 9.2275,0.32238 13.535,1.00027 45.2524,-0.0103 90.5124,0.14396 135.7532,-1.04158 2.3053,-3.45394 0.2935,-9.22175 0.9544,-13.53492 -0.452,-163.01978 -0.3185,-326.04349 -1.4256,-489.06007 -0.4817,-2.16529 0.091,-6.66503 -2.7526,-7.31676 z"
     id="path66"
     transform="scale(0.74999998)" />
  <path
     style="fill:#ffffff;fill-opacity:1;stroke-width:0.783392"
     d="m 954.45506,346.67498 c -11.87941,4.23152 -22.84058,10.89976 -34.19632,16.39615 -67.38114,34.76491 -128.16328,81.90945 -180.1493,136.99365 -33.58066,36.02297 -64.9065,74.58752 -88.73563,117.85654 -23.27276,40.78583 -41.75099,84.09722 -57.62491,128.2362 -1.33815,1.80113 -2.67136,-4.99134 -3.87243,-6.92923 -16.82766,-42.849 -36.18089,-84.71804 -57.49726,-125.51345 -16.16286,-28.3711 -35.43667,-54.96476 -56.54305,-79.85505 -32.15978,-36.94697 -66.49692,-72.78723 -107.8588,-99.54574 -35.03155,-22.90752 -73.55256,-40.47691 -113.6084,-52.53225 -16.47536,-5.01209 -36.55394,-4.79243 -49.86589,7.48128 -9.5156,7.67224 -15.29373,18.7566 -18.43018,30.39283 -5.00851,17.10457 -2.6506,35.22631 -3.2996,52.78563 0.28524,158.46884 0.61867,316.94026 1.66302,475.40543 0.41222,7.49486 -0.19288,15.2466 0.85472,22.58101 32.75555,-1.55768 67.24365,-6.29843 95.0947,-25.1133 19.36588,-12.83045 34.48831,-31.65162 43.04892,-53.23677 14.79338,-34.14385 17.40829,-71.9571 18.30775,-108.70767 0.12043,-66.01112 -7.95527,-131.86293 -8.74525,-197.74078 24.75672,14.09061 40.10322,39.09425 54.55286,62.73257 33.47904,58.28544 61.69447,119.52752 96.22404,177.25984 23.39526,38.69355 47.62992,77.56174 79.50422,109.9508 13.59776,13.03838 29.4358,26.66548 49.01346,28.37244 15.94815,1.0145 28.60608,-10.90702 38.98448,-21.48055 25.11384,-28.50703 41.03434,-63.615 55.68615,-98.29524 19.48116,-46.09277 35.18269,-93.67198 54.8471,-139.67847 13.56121,-30.2101 33.3515,-57.36081 58.02796,-79.44893 18.27595,-17.47363 38.81124,-32.51638 61.84531,-43.08472 25.42679,-12.84456 53.26852,-19.68315 81.4432,-22.62799 2.77936,0.0932 4.7239,-1.90659 4.10055,-4.69882 -1.20266,-46.09612 -4.25406,-92.13232 -6.42199,-138.19262 -1.4433,-22.69572 -1.93781,-45.49142 -4.22111,-68.11185 -0.18638,-1.00187 -1.06617,-1.8231 -2.12832,-1.65094 z"
     id="path905"
     transform="scale(0.74999998)" />
</svg>
